<?xml version="1.0" encoding="UTF-8"?>
<!DOCTYPE svg PUBLIC "-//W3C//DTD SVG 1.1//EN" "http://www.w3.org/Graphics/SVG/1.1/DTD/svg11.dtd">
<!-- Creator: CorelDRAW 2021 (64-Bit) -->
<svg xmlns="http://www.w3.org/2000/svg" xml:space="preserve" width="210mm" height="297mm" version="1.1" style="shape-rendering:geometricPrecision; text-rendering:geometricPrecision; image-rendering:optimizeQuality; fill-rule:evenodd; clip-rule:evenodd"
viewBox="0 0 21000 29700"
 xmlns:xlink="http://www.w3.org/1999/xlink"
 xmlns:xodm="http://www.corel.com/coreldraw/odm/2003">
 <defs>
  <style type="text/css">
   <![CDATA[
    .fil16 {fill:#0868AB}
    .fil17 {fill:#131B28}
    .fil4 {fill:#264BE1}
    .fil5 {fill:#2964F1}
    .fil1 {fill:#3672A2}
    .fil3 {fill:#4381B2}
    .fil10 {fill:#6E10E2}
    .fil8 {fill:#7C12F7}
    .fil11 {fill:#D6BA35}
    .fil14 {fill:#E44D26}
    .fil7 {fill:#EBEBEB}
    .fil15 {fill:#F16529}
    .fil9 {fill:#F7F0FC}
    .fil18 {fill:#FEFEFE}
    .fil12 {fill:#FFDA3F}
    .fil0 {fill:#FFDA4B}
    .fil2 {fill:#FFE56A}
    .fil6 {fill:white}
    .fil13 {fill:white}
   ]]>
  </style>
 </defs>
 <g id="Layer_x0020_1">
  <metadata id="CorelCorpID_0Corel-Layer"/>
  <g id="_1730330059472">
   <path class="fil0" d="M-54846.22 -4736.69c34.28,131.66 40.6,255.33 124.99,397.65 479.82,809.22 1872.62,985.96 2726,887.79 531.14,-61.12 1256.58,-271.41 1545.23,-562.48 528.65,-533.1 385.14,-811.4 385.14,-1722.56l-2380.92 0 0 -292.73 3337.2 0c221.13,0 358.94,9.48 531.26,-34.7 143.42,-36.77 276.21,-110.15 371.38,-194.57 180.54,-160.16 330.32,-449.87 421.86,-690.55 370.93,-975.3 345.38,-1615.59 130.94,-2604.31l-43.31 -171.19c-2.19,-5.56 -9.96,-21.15 -12.19,-25.53l-14.33 -22.65 -1332.04 948.44c-82.26,56.93 -150.48,110.43 -226.44,163.82 -72.75,51.14 -143.38,98.49 -217.37,153.31 -688.03,509.76 -1517.89,1082.91 -2221.81,1583.88 -192.91,137.29 -139.15,68.14 -359.01,226.53l-2540.03 1811.99c-61.72,44.83 -160.5,131.68 -226.55,147.86z"/>
   <path class="fil1" d="M-52871.63 -11161.67l406.33 0 0 273.22 -660.03 0 -1986.05 2349.78c-22.48,25.41 -34.72,33.26 -57.27,59.69 -30.68,35.97 -27.65,40.51 -59.83,76.92l-1170.59 1366.57c-30.82,32.96 -24.9,29.29 -52.27,64.39 -28.48,36.52 -36.2,40.59 -63.7,73.12l-357.33 420.09c102.87,185.83 421.33,381.94 662.08,427.31 280.8,52.93 765.69,21.56 1090.85,21.56 0,-1044.74 -179.6,-1898.55 884.46,-2433.22 224.39,-112.75 371.91,-123.36 696.31,-123.35 553.38,0.02 2153.16,34.34 2489.9,-27.65 438.68,-80.75 763.81,-389.23 903.43,-755.4 127.66,-334.79 80.48,-1183.93 80.48,-1597.88 0,-417.69 51.24,-1228.73 -91.52,-1567.32 -128.78,-305.44 -456.25,-589.47 -764.49,-699.22 -48.04,-17.1 -109.95,-31.57 -155.31,-55.83l-229.3 281.6c-308.54,324.61 -801.07,969.79 -1122.21,1317.21l-443.94 528.41z"/>
   <path class="fil2" d="M-54846.22 -4736.69c66.05,-16.18 164.83,-103.03 226.55,-147.86l2540.03 -1811.99c219.86,-158.39 166.1,-89.24 359.01,-226.53 703.92,-500.97 1533.78,-1074.12 2221.81,-1583.88 73.99,-54.82 144.62,-102.17 217.37,-153.31 75.96,-53.39 144.18,-106.89 226.44,-163.82l1332.04 -948.44c-4.35,-209.58 -257.77,-704.14 -476.31,-873.8 -340.15,-264.09 -621.12,-242.13 -1104.46,-242.13 -591.2,0 -487.9,-93.34 -487.9,409.83 0,578.72 79.48,1053.23 -270.08,1525.37l-170.85 199.94c-2.84,2.84 -7,6.85 -9.9,9.62 -250.89,240.79 -584.89,427.8 -973.03,432.11 -397.98,4.41 -2389.53,-35.12 -2666.48,26.69 -446.84,99.73 -793.79,445.07 -917.43,878.02 -87.2,305.37 -46.81,2264.25 -46.81,2670.18z"/>
   <path class="fil3" d="M-56872.37 -6477.89l357.33 -420.09c27.5,-32.53 35.22,-36.6 63.7,-73.12 27.37,-35.1 21.45,-31.43 52.27,-64.39l1170.59 -1366.57c32.18,-36.41 29.15,-40.95 59.83,-76.92 22.55,-26.43 34.79,-34.28 57.27,-59.69l1986.05 -2349.78c-768.79,0 -1537.58,0 -2306.36,0 -1203.31,0 -1643.69,442.16 -1872.02,1582.27 -31.22,155.85 -54.26,337.12 -74.36,491.6 -12.38,95.23 1.01,183.78 -13.89,279.76 -19.35,124.64 8.29,138.66 9.41,260.76 3.66,400.32 139.69,1083.26 286.09,1431.3l184.66 322.92c3.74,4.37 15.87,17.34 19.29,21.05l20.14 20.9z"/>
   <path class="fil3" d="M-52871.63 -11161.67l443.94 -528.41c321.14,-347.42 813.67,-992.6 1122.21,-1317.21l229.3 -281.6c-825.4,-177.12 -1983.85,-194.21 -2802.15,11.61 -1147.13,288.53 -967.89,898.92 -967.89,2115.61l1974.59 0z"/>
  </g>
  <g id="_1730330058800">
   <path class="fil4" d="M7284.84 18453.41c53.18,4.43 167.64,45.74 224.82,60.72l1345.18 374.15c78.55,22.14 152.47,43.48 228.26,63.35 223.22,58.5 445.58,129.53 670.78,185.84 228.51,57.13 446.97,122.86 675.42,187.28 35.66,10.06 426.98,125.02 452.14,125.02 20.44,0 88.61,-21.07 111.98,-27.75l789.62 -218.88c76.84,-19.21 150.29,-43.29 223.61,-61.94 301.69,-76.73 602.49,-171.3 903.98,-250.33 75.8,-19.86 149.72,-41.2 228.27,-63.35 82.22,-23.18 1311.17,-370.26 1357.36,-374.11l200.53 -2247.83c6.03,-140.23 29.49,-276.71 36.52,-419.13 2.13,-43.07 8.02,-97.25 13.01,-144.95 14.28,-136.66 17.88,-276.94 38.06,-417.59 13.06,-91.08 14.6,-194.44 26.1,-283.74l37.97 -423.75c13.16,-237.43 42.89,-466.35 61.39,-704.1 12.12,-155.58 30.22,-405.42 49.84,-557.7 22.95,-178.1 28.34,-384.22 51.29,-562.32 6.05,-46.94 8.49,-96.99 12.88,-139 5.04,-48.25 7.6,-96.37 12.15,-139.74 5.07,-48.33 10.5,-101.04 12.94,-145.02 10.49,-189.23 38.45,-375.18 48.96,-564.65l63.15 -702.34c18.59,-129.62 25.11,-289.98 38.98,-422.74 4.97,-47.49 9.49,-96.49 12.72,-139.16l24.52 -279.25c7.97,-143.72 32.14,-281.48 36.64,-425.08 2.9,-92.41 24.3,-189.58 24.3,-285.55l-8815.32 0c0,112.17 89.59,983.14 97.39,1123.75l44.05 490.59c20.52,158.32 21.4,330.48 44.32,490.3 19.12,133.26 28.67,291.55 38.63,423.1 7.43,98.11 20.6,190.65 24.66,285.18 6.09,141.67 32.06,277.51 36.5,419.14l50.3 563.32c15.78,121.73 21.45,307.54 38.24,423.48l75.48 841.9c4.42,141.15 30.44,278.08 36.5,419.15 5.52,128.34 34.63,422.89 49.49,564.12 4.5,42.77 7.02,96.92 13.8,144.16 13.34,92.97 11.88,185.54 25.23,278.54l125.05 1412.01c16.99,162.03 29.95,414.82 51.13,562.47 12.87,89.71 27.13,313.25 38.1,417.55 2.74,26.02 3.93,52.83 6.03,72.95 2.74,26.13 5.37,51.73 7.05,71.93z"/>
   <path class="fil5" d="M10889.91 11290.87l2760.29 1.31c0.2,29.75 -1.58,11.84 -5.82,18.72 8.94,33.69 -489.13,5578.52 -497.62,5596 -9.66,10.86 5.17,1.12 -15.48,11.54l-546.87 151.84c-183.63,49.08 -1647.35,465.44 -1690.46,463.59l-4.56 6.79 0 1141.91c39.94,-0.03 2047.21,-563.86 2187.8,-603.03l546.9 -151.71c56.33,-15.67 133.97,-32.61 184.4,-52.49l693.85 -7687.31 -3614.83 0 2.4 1102.84z"/>
   <path class="fil6" d="M12440.98 12398.09l-100.18 1128.2 -1454.19 -1.15 0 1094.77 1337.79 0.46c25.44,5.28 13.21,2.46 22.2,9.23l-129.02 1427.34c-29.92,17.46 -1176.51,321.2 -1230.97,334.72 0,191.1 0,382.2 0,573.3 0,95.18 0,190.36 0,285.54 0,47.53 -13.92,259.06 7.34,283.37 43.11,1.85 1506.83,-414.51 1690.46,-463.59l546.87 -151.84c20.65,-10.42 5.82,-0.68 15.48,-11.54 8.49,-17.48 506.56,-5562.31 497.62,-5596l-4.74 -12.5 -2753.03 -2.34 0 1096.69c114.56,-10.88 276.16,-1.71 395.8,-1.71l972.05 0c25.84,0 167.84,-8.3 186.52,7.05z"/>
   <path class="fil7" d="M10889.39 17540.66l4.56 -6.79c-21.26,-24.31 -7.34,-235.84 -7.34,-283.37 0,-95.18 0,-190.36 0,-285.54 0,-191.1 0,-382.2 0,-573.3l-10.04 -6.18c-36.08,0.85 -813.71,-214.26 -916.48,-242.91 -84.21,-23.47 -231.6,-53.14 -303.94,-83.73l-78.03 -876.06 -1106.07 -2.04 152.33 1728.7c9.35,5.11 -0.76,0.07 14.84,7.27l51.93 15.16c23.48,6.27 46.38,13.17 71.15,19.94 48.04,13.15 94.62,26.52 142.84,39.48l1697.52 471.35c88.34,23.88 200.46,62.73 286.73,78.02z"/>
   <path class="fil7" d="M10889.39 12396l1551.59 2.09c-18.68,-15.35 -160.68,-7.05 -186.52,-7.05l-972.05 0c-119.64,0 -281.24,-9.17 -395.8,1.71l0 -1096.69 2753.03 2.34 4.74 12.5c4.24,-6.88 6.02,11.03 5.82,-18.72l-2760.29 -1.31 -2765.34 0.9 98.72 1101.36 2666.1 2.87z"/>
   <path class="fil7" d="M10889.39 14629.81l1357.21 -0.21c-8.99,-6.77 3.24,-3.95 -22.2,-9.23l-1337.79 -0.46 0 -1094.77 -2564.33 0.35 98.66 1104 2468.45 0.32z"/>
   <path class="fil5" d="M10876.57 16385.48l10.04 6.18c54.46,-13.52 1201.05,-317.26 1230.97,-334.72l129.02 -1427.34 -1357.21 0.21 0 1654.71c0,61.14 10.25,92.33 -12.82,100.96z"/>
   <polygon class="fil5" points="12340.8,13526.29 12440.98,12398.09 10889.39,12396 10889.39,13526.29 "/>
  </g>
  <g id="_1730330058656">
   <path class="fil8" d="M-67057.54 10794.68c10.23,79.68 43.5,59.84 138.77,77.38 392.29,72.21 695.78,384.34 858.4,734.74 758.88,1635.07 -74.15,2960.56 872.19,3662.13 172.93,128.19 388.9,251.7 679.67,251.7l7450.98 0c510.55,0 905.1,-381.93 1064.85,-748.87 148.13,-340.23 112.14,-804.6 111.61,-1236.43 -0.93,-759.55 148.59,-1607.58 533.88,-2186.7 387.7,-582.74 838.68,-399.4 838.68,-558.39l0 -543.65c-10.23,-79.68 -43.5,-59.85 -138.77,-77.38 -54.96,-10.12 -104.02,-25.08 -171.42,-49.18 -318.88,-113.99 -540.07,-392.92 -686.81,-685.73 -579.91,-1157.19 -227.01,-2544.93 -479.95,-3147.5 -172.48,-410.88 -584.83,-766.17 -1072.07,-766.17l-7450.98 0c-289.28,0 -494.84,116.3 -665.63,241.25 -590.6,432.08 -511.64,1083.67 -510.84,1744.06 1.05,849.2 -222.48,2459.99 -1212.72,2659.82 -84.11,16.97 -159.84,-11.21 -159.84,85.26l0 543.66z"/>
   <path class="fil9" d="M-59478.59 10437.41l-386.54 -73.91c123.19,-50.59 232.07,-74.27 338.35,-131.4 109.85,-59.07 187.9,-146.77 273.69,-184.16 43.91,-86.41 106.56,-141.63 162.73,-236.36 388.48,-655.22 154.77,-1478.17 -617.69,-1812.7 -418.77,-181.36 -927.91,-152.28 -1418.11,-152.38 -396.61,-0.09 -1241.13,-46.54 -1585.16,9.5l0.64 5326.26c166.74,28.99 1607.97,9.54 1903.14,9.55 609.61,0.03 1148.14,-34.85 1577.91,-334.36 710.93,-495.46 838.11,-1662.59 60.23,-2234.54 -88.73,-65.24 -234.29,-100.03 -309.19,-185.5z"/>
   <path class="fil8" d="M-61837.36 11035.34l0 1456.99 1078.85 -0.38c674.18,0.06 1226.59,-177.09 1226.46,-868.41 -0.13,-685.78 -585.35,-856.96 -1250.97,-856.94l-1054.53 0.07 0.19 268.67z"/>
   <path class="fil8" d="M-61837.01 10108.69c809.06,-2.78 2009.97,158.58 2055.44,-764.65 49.17,-998.52 -1229.34,-796.08 -2055.8,-797.47l0.36 1562.12z"/>
   <path class="fil10" d="M-59478.59 10437.41c78.89,-73.85 44.46,-201.19 255.28,-342.36 5.07,-83.45 12.54,-10.55 -29.78,-47.11 -85.79,37.39 -163.84,125.09 -273.69,184.16 -106.28,57.13 -215.16,80.81 -338.35,131.4l386.54 73.91z"/>
  </g>
  <g id="_1730330051840">
   <polygon class="fil11" points="-78315.8,5221.78 -69419.14,5217.22 -70239.8,14214.19 -73917.62,15217.23 -77473.85,14104.21 "/>
   <polygon class="fil12" points="-73856.83,6007.5 -70239.8,6007.5 -70951.73,13812.33 -73834.87,14598.64 "/>
   <polygon class="fil13" points="-75069.24,7166.68 -74136.09,7166.68 -74194.63,13086.2 -76801.47,12304.15 -76801.47,11261.41 -75063.58,11765.4 "/>
   <polygon class="fil13" points="-73504.91,7145.26 -70688.55,7161.51 -70745.69,8204.25 -72635,8204.25 -72635,9814.33 -70914.48,9525.06 -71174.97,12398.53 -73521.33,13086.2 -73521.33,11930.09 -71865.42,11541.02 -71766.05,10637.32 -73520.45,10956.12 "/>
  </g>
  <g id="_1730330020016">
   <polygon class="fil14" points="-72314.97,-8679.44 -63418.31,-8684 -64238.97,312.96 -67916.79,1316 -71473.02,202.98 "/>
   <polygon class="fil15" points="-67656.18,-7880.8 -64206.46,-7880.8 -64885.46,-263.74 -67635.24,503.66 "/>
   <polygon class="fil13" points="-64976.3,-6886.19 -70632.05,-6886.19 -70313.27,-3466.58 -66466.36,-3466.58 -66574.88,-2075.55 -67821.01,-1698.81 -69067.14,-2017.59 -69116.73,-2926.15 -70246.58,-2932.21 -70118.27,-1149.33 -67798.55,-519.69 -65478.83,-1165.9 -65197.15,-4645.48 -69256.66,-4645.48 -69372.65,-5772.2 -65097.74,-5772.2 "/>
  </g>
  <g id="_1730330019200">
   <path class="fil16" d="M-46770.28 9963.34c1169.18,-0.4 2504.18,-708.63 2818.89,-1653.75 -579.78,431.5 -1057.86,774.18 -2060.07,806.27 -922.31,29.54 -1648.48,-278.59 -2247.56,-669.69 -576.07,-376.08 -1055.4,-838.23 -1383.7,-1493.5 -492.66,-983.28 -285.04,-1452.57 -228.04,-2496.09 -384.75,281.12 -732.86,1030.33 -750.76,1742.79 -47.35,1885.09 1620.49,3764.73 3851.24,3763.97z"/>
   <path class="fil16" d="M-43748.45 6514.2c-373.51,295.32 -704.96,609.34 -1412.37,671.1 -1036.23,90.44 -2254.73,-601.44 -2713.83,-1496.34 -425.58,-829.59 -205.87,-1479.19 -233.96,-1708.58 -12.26,-100.07 -2.49,-58.58 -31.66,-113.56 -149.9,284.17 -314.28,429.29 -409.75,858.55 -378.66,1702.65 1443.97,3505.53 3379.9,2972.64 632.03,-173.98 1268.12,-626.95 1421.67,-1183.81z"/>
   <path class="fil17" d="M-48840.92 12849.47l100.58 -338 -131.61 -76.97c-53.6,-54.34 -81.46,109.79 -36.06,-136.59 37.7,-204.61 407.77,-805.14 45.55,-1229.73 -366.39,-429.47 -1050.38,-366.59 -1440.64,28.91 -286.03,289.87 -572.56,1030.45 -277.87,1487.32 264.61,410.26 1177.18,265.95 1740.05,265.06z"/>
   <path class="fil17" d="M-45537.41 12465.78c-629.95,1.82 -885.04,76.18 -947.01,-208.23l80.84 -35.07c302.5,-77.93 695.22,26.74 958.73,-52.66 513.74,-1199.13 -1062.34,-1279.75 -1380.22,-419.43 -445.35,1205.29 254.29,1110.01 865.71,1108.64 385.9,-0.87 412.95,30.56 421.95,-393.25z"/>
   <path class="fil17" d="M-47285.61 12846.78l350.93 -1610.85c-794.4,-2.25 -285.13,117.96 -708.51,1202.88l-420.8 0.8c-101.08,-382.96 102.18,-796.22 126.1,-1195.41l-397.24 -7.4c-104.02,226.64 -261.16,1078.25 -208.78,1320.13 91.65,423.26 823.61,299.64 1258.3,289.85z"/>
   <path class="fil16" d="M-44060.87 5346.05c-813.65,200 -1126.19,279.71 -1805.12,-201.38 -486.71,-344.9 -737.27,-750.16 -733.69,-1625.68l-166.85 213.87c-142.88,284.4 -144.75,640.2 -35.79,935.05 142.24,384.9 354.28,661.49 605.16,858.46 656.53,515.46 1783.78,470.69 2136.29,-180.32z"/>
   <path class="fil17" d="M-43539.68 11942.01c-126.57,-215.92 65.6,-222.89 -551.58,-200.47 80.06,558.26 198.05,434.25 111.38,1100.35 631.15,5.98 390.7,7.49 641.78,-433.14 302.97,-531.72 746.67,-929.3 991.54,-1402.3l-435.96 -17.37c-292.14,146.6 -501.1,770.42 -757.16,952.93z"/>
   <path class="fil17" d="M-45305.76 12847.08l393.58 -1.2 281.3 -1215.43 970.8 -5.19c-43.27,-341.87 -72.77,-389.46 -431.06,-401.66 -716.91,-24.41 -844.39,-64.22 -932.58,155.43l-282.04 1468.05z"/>
   <path class="fil18" d="M-50156.55 12323.34c221.2,141.25 394.41,128.59 733.48,107.21 159.49,-391.94 461.3,-1184.82 -129.72,-1219.82 -615.96,-36.47 -654.75,836.26 -603.76,1112.61z"/>
   <path class="fil17" d="M-51936.75 13146.06l-78.97 357.62c612.74,54.93 757.13,-18.09 893.65,-549.68 97.83,-380.98 210.74,-828.97 268.27,-1218.77l-462.57 3.8c-45.86,222.3 -198.45,1047.52 -301.97,1223.28 -114.93,195.14 -76.25,82.22 -318.41,183.75z"/>
   <polygon class="fil17" points="-51277.85,11601.55 -50817.9,11598.61 -50745.75,11234.54 -51208.48,11236.27 "/>
   <path class="fil18" d="M-46374.7 11841.25l542.6 -4.17c19.14,-396.99 -470.67,-300.19 -542.6,4.17z"/>
  </g>
  <circle class="fil13" cx="-322710.85" cy="-266703.96" r="3987.9"/>
  <circle class="fil13" cx="-299262" cy="-200345.33" r="3987.9"/>
 </g>
</svg>
